<?xml version="1.0" encoding="UTF-8"?>
<svg xmlns="http://www.w3.org/2000/svg"
     viewBox="0 0 512 512"
     width="512"
     height="512"
     aria-label="QuietRate favicon mark">
  <path d="M 125.346 120.447 L 112.689 134.329 L 104.523 144.944 L 93.091 163.317 L 87.375 174.750 L 85.742 179.649 L 116.364 168.625 L 119.222 169.033 L 139.228 193.531 L 141.270 195.164 L 146.986 184.549 L 153.927 174.341 L 162.501 163.726 L 171.892 154.335 L 180.874 146.986 L 191.081 140.045 L 204.963 132.695 L 222.928 126.163 L 235.585 123.305 L 244.976 122.080 L 260.900 121.671 L 270.699 122.488 L 282.947 124.530 L 303.362 131.062 L 320.919 140.045 L 329.085 145.352 L 337.659 152.293 L 351.541 166.175 L 363.789 182.915 L 373.180 201.289 L 377.263 212.721 L 380.121 223.337 L 382.979 242.935 L 382.979 259.266 L 380.938 274.781 L 378.488 284.581 L 373.180 299.279 L 367.056 311.120 L 360.115 321.735 L 353.582 329.901 L 340.517 342.967 L 328.676 351.949 L 320.102 357.257 L 307.037 363.789 L 292.338 369.097 L 278.456 372.364 L 265.799 373.997 L 240.077 373.589 L 222.520 370.322 L 210.679 366.648 L 200.880 362.565 L 186.998 355.215 L 176.791 348.274 L 168.217 341.333 L 157.193 330.309 L 145.352 314.794 L 138.411 302.137 L 134.329 291.930 L 130.654 279.273 L 128.204 263.758 L 127.796 249.059 L 128.612 237.627 L 130.654 225.786 L 134.737 212.313 L 114.730 187.407 L 112.281 185.774 L 108.606 186.182 L 78.801 199.656 L 76.759 204.963 L 72.676 224.153 L 70.226 249.059 L 70.635 267.024 L 71.860 277.640 L 75.943 297.238 L 83.700 319.694 L 94.316 340.517 L 101.665 351.949 L 112.689 366.239 L 129.837 383.796 L 140.045 392.370 L 153.927 402.169 L 164.134 408.293 L 177.199 414.826 L 185.774 418.501 L 205.780 425.033 L 220.478 428.300 L 231.502 429.933 L 246.201 431.158 L 262.124 431.158 L 281.314 429.116 L 302.137 424.625 L 313.978 420.951 L 332.351 413.193 L 347.049 405.435 L 360.523 396.453 L 383.388 419.317 L 387.879 422.992 L 391.145 424.217 L 430.341 424.625 L 435.241 422.992 L 439.324 419.317 L 441.365 414.418 L 441.365 409.518 L 438.915 403.802 L 400.536 362.565 L 400.944 360.931 L 413.193 344.600 L 420.951 331.534 L 427.892 317.244 L 434.833 297.238 L 438.915 278.864 L 440.549 261.308 L 440.140 240.077 L 438.099 222.520 L 436.057 212.313 L 430.750 193.123 L 425.850 180.057 L 418.501 164.542 L 407.069 145.761 L 397.678 133.512 L 384.612 119.222 L 370.730 106.973 L 359.298 98.399 L 345.825 89.825 L 325.410 79.617 L 306.220 72.676 L 293.563 69.410 L 277.231 66.552 L 254.367 65.327 L 238.852 66.144 L 216.804 69.818 L 205.780 72.676 L 187.407 79.209 L 168.625 88.191 L 153.927 97.174 L 142.494 105.340 Z" fill="currentColor"/>
</svg>
